# xmcd CD database file
#
# Track frame offsets:
#	150
#	22123
#	46595
#	85152
#	115807
#	154176
#	174803
#	204391
#	230557
#	261107
#
# Disc length: 3701 seconds
#
# Revision: 0
# Processed by: cddbd v1.5.2PL0 Copyright (c) Steve Scherf et al.
# Submitted via: CDex 1.51
#
DISCID=740e730a
DTITLE=Bob Martin - Bob Martin Quartet
DYEAR=2002
DGENRE=Jazz
TTITLE0=Star Eyes
TTITLE1=Yesterdays
TTITLE2=Isotope
TTITLE3=Nica's Dream
TTITLE4=I Can't Get Started
TTITLE5=Dig
TTITLE6=Ceora
TTITLE7=Yes And No
TTITLE8=Quasimodo
TTITLE9=Lazy Bird
EXTD=YEAR: 2002
EXTT0=
EXTT1=
EXTT2=
EXTT3=
EXTT4=
EXTT5=
EXTT6=
EXTT7=
EXTT8=
EXTT9=
PLAYORDER=
